<svg xmlns="http://www.w3.org/2000/svg" width="600" height="300" viewBox="0 0 600 300">
  <defs>
    <linearGradient id="bg-gradient" x1="0%" y1="0%" x2="100%" y2="100%">
      <stop offset="0%" style="stop-color:#121212;stop-opacity:1" />
      <stop offset="100%" style="stop-color:#1e1e1e;stop-opacity:1" />
    </linearGradient>
    <linearGradient id="copilot-gradient" x1="0%" y1="0%" x2="100%" y2="100%">
      <stop offset="0%" style="stop-color:#ff3636;stop-opacity:0.8" />
      <stop offset="100%" style="stop-color:#ff5757;stop-opacity:0.8" />
    </linearGradient>
    <linearGradient id="github-gradient" x1="0%" y1="0%" x2="100%" y2="100%">
      <stop offset="0%" style="stop-color:#ffffff;stop-opacity:0.8" />
      <stop offset="100%" style="stop-color:#cccccc;stop-opacity:0.8" />
    </linearGradient>
  </defs>
  
  <!-- Background -->
  <rect width="600" height="300" fill="url(#bg-gradient)" />
  
  <!-- Decorative background elements -->
  <g opacity="0.07">
    <text x="30" y="30" font-family="monospace" font-size="10" fill="#ffffff">const generateCode = async (prompt) => {</text>
    <text x="50" y="50" font-family="monospace" font-size="10" fill="#ffffff">  const response = await copilot.getSuggestion(prompt);</text>
    <text x="50" y="70" font-family="monospace" font-size="10" fill="#ffffff">  return response.code;</text>
    <text x="30" y="90" font-family="monospace" font-size="10" fill="#ffffff">};</text>
    
    <text x="350" y="200" font-family="monospace" font-size="10" fill="#ffffff">function createApp() {</text>
    <text x="370" y="220" font-family="monospace" font-size="10" fill="#ffffff">  return new Application();</text>
    <text x="350" y="240" font-family="monospace" font-size="10" fill="#ffffff">}</text>
    
    <text x="50" y="270" font-family="monospace" font-size="10" fill="#ffffff">// GitHub Copilot Workshop</text>
  </g>
  
  <!-- GitHub Copilot Logo -->
  <g transform="translate(300, 150) scale(0.8)">
    <!-- GitHub Cat silhouette -->
    <path d="M0,-60 C-33,-60 -60,-33 -60,0 C-60,33 -33,60 0,60 C33,60 60,33 60,0 C60,-33 33,-60 0,-60 Z M0,-30 C-16.5,-30 -30,-16.5 -30,0 C-30,16.5 -16.5,30 0,30 C16.5,30 30,16.5 30,0 C30,-16.5 16.5,-30 0,-30 Z" fill="url(#github-gradient)" />
    
    <!-- Copilot Symbol - Rocket -->
    <g transform="translate(0, 15) rotate(-45)">
      <path d="M0,-20 L10,0 L0,20 L-10,0 Z" fill="url(#copilot-gradient)" />
      <circle cx="0" cy="0" r="7" fill="#ffffff" />
      <path d="M-15,15 L-10,0 L-20,-10 M15,15 L10,0 L20,-10" stroke="#ff3636" stroke-width="3" stroke-linecap="round" />
    </g>
  </g>
  
  <!-- Text elements -->
  <g transform="translate(300, 240)">
    <text x="0" y="0" font-family="Arial, sans-serif" font-weight="bold" font-size="16" fill="#ffffff" text-anchor="middle">GitHub Copilot معسكر</text>
    <text x="0" y="25" font-family="Arial, sans-serif" font-size="12" fill="#ff3636" text-anchor="middle">تطوير التطبيقات بذكاء 🧠🤖</text>
  </g>
  
  <!-- Decorative elements -->
  <circle cx="150" cy="80" r="5" fill="#ff3636" opacity="0.5" />
  <circle cx="170" cy="60" r="3" fill="#ff3636" opacity="0.5" />
  <circle cx="190" cy="70" r="4" fill="#ff3636" opacity="0.5" />
  
  <circle cx="450" cy="80" r="5" fill="#ff3636" opacity="0.5" />
  <circle cx="430" cy="60" r="3" fill="#ff3636" opacity="0.5" />
  <circle cx="410" cy="70" r="4" fill="#ff3636" opacity="0.5" />
  
  <circle cx="150" cy="220" r="5" fill="#ff3636" opacity="0.5" />
  <circle cx="170" cy="240" r="3" fill="#ff3636" opacity="0.5" />
  <circle cx="190" cy="230" r="4" fill="#ff3636" opacity="0.5" />
  
  <circle cx="450" cy="220" r="5" fill="#ff3636" opacity="0.5" />
  <circle cx="430" cy="240" r="3" fill="#ff3636" opacity="0.5" />
  <circle cx="410" cy="230" r="4" fill="#ff3636" opacity="0.5" />
</svg>
